<svg xmlns="http://www.w3.org/2000/svg" version="1.1" xmlns:xlink="http://www.w3.org/1999/xlink" xmlns:svgjs="http://svgjs.dev/svgjs" width="100%" height="100%" viewBox="0 0 1000 600"><rect width="1000" height="600" x="0" y="0" fill="#072c50"/><g><rect width="333.3333333333333" height="333.3333333333333" y="215.0708993268795" fill="#b88746" transform="matrix(0.6481765445543833,0,0,0.6481765445543834,0,52.566654175214026)" x="192.84864807128906"/><path d="M351.47637321359883 321.6713271653077L305.32021074700424 321.6713271653077L305.32021074700424 306.7375655322803L413.71041614800913 306.7375655322803L413.71041614800913 321.6713271653077L367.9456627564737 321.6713271653077L367.9456627564737 456.73756645111547L351.47637321359883 456.73756645111547L351.47637321359883 321.6713271653077Z " fill="#072c50" transform="matrix(0.6481765445543833,0,0,0.6481765445543834,0,52.566654175214026)"/><path d="M643.4913770414944 321.89714254175647L609.5153133649085 321.89714254175647L609.5153133649085 310.9042347899061L689.3025470476932 310.9042347899061L689.3025470476932 321.89714254175647L655.614603937184 321.89714254175647L655.614603937184 421.3209009586932L643.4913770414944 421.3209009586932L643.4913770414944 321.89714254175647ZM742.5826886514194 411.4361492302149L742.5826886514194 411.4361492302149L747.2147808291145 410.94856057993115L747.5472276361261 420.36788677859323Q729.3513057323576 422.9166456323489 716.4302064998401 422.9166456323489L716.4302064998401 422.9166456323489Q699.1872987761715 422.9166456323489 692.0064477447208 412.94324142200077Q684.8255967132702 402.9698372116527 684.8255967132702 381.91487276758454L684.8255967132702 381.91487276758454Q684.8255967132702 339.9379226022528 718.1810930167678 339.9379226022528L718.1810930167678 339.9379226022528Q734.2936815965968 339.9379226022528 742.2724049648752 348.95831263250096Q750.2511283331537 357.97870266274913 750.2511283331537 377.2827805898895L750.2511283331537 377.2827805898895L749.608397839598 386.36965998154L696.9488236089601 386.36965998154Q696.9488236089601 399.6232060210692 701.7360576299271 406.00618471569203Q706.5232916508942 412.3891634103148 718.4248873419097 412.3891634103148Q730.3043199124575 412.3891634103148 742.5826886514194 411.4361492302149ZM696.793681765688 376.79519193960584L738.2830432807361 376.79519193960584Q738.2830432807361 362.12320619016043 733.5844617416387 356.05051118208183Q728.8637170820739 349.9999792944706 718.2475823781701 349.9999792944706Q707.6536107947336 349.9999792944706 702.2901356416132 356.3829579890934Q696.9488236089601 362.7659366837162 696.793681765688 376.79519193960584L696.793681765688 376.79519193960584ZM798.7661990363804 339.9379226022528L798.7661990363804 339.9379226022528Q804.0188585871638 339.9379226022528 816.6296741331371 341.84395096245265L816.6296741331371 341.84395096245265L820.4638939740043 342.3315396127363L819.9763053237207 352.06114949794255Q807.2103479344751 350.6205466675589 801.1598160468639 350.6205466675589L801.1598160468639 350.6205466675589Q787.5959863207904 350.6205466675589 782.7200998179537 357.0921778440515Q777.8663764355842 363.56380902054406 777.8663764355842 381.0283479488869Q777.8663764355842 398.49288687722975 782.4098161314096 405.3634542221362Q786.9532558272347 412.2340215670427 801.3149578901359 412.2340215670427L801.3149578901359 412.2340215670427L820.1536102874602 410.7934187366591L820.6190358172764 420.6781704651374Q805.7919082245589 422.9166456323489 798.4337522293688 422.9166456323489L798.4337522293688 422.9166456323489Q779.772404795784 422.9166456323489 772.6802062462032 413.3421775904147Q765.5658445761549 403.7677095484805 765.5658445761549 381.0283479488869Q765.5658445761549 358.2889863492933 773.2342842578892 349.11345447577304Q780.8805608191562 339.9379226022528 798.7661990363804 339.9379226022528ZM850.4727590869184 355.40778068852603L850.4727590869184 421.3209009586932L838.5046740345006 421.3209009586932L838.5046740345006 306.7375681420274L850.4727590869184 306.7375681420274L850.4727590869184 346.0106176103314Q863.238716476164 339.9379226022528 875.029496564842 339.9379226022528L875.029496564842 339.9379226022528Q890.9869433013989 339.9379226022528 896.5055602977916 348.55937646408705Q902.0020141737168 357.18083032592125 902.0020141737168 379.18880895008937L902.0020141737168 379.18880895008937L902.0020141737168 421.3209009586932L890.033929121299 421.3209009586932L890.033929121299 379.52125575710096Q890.033929121299 362.92107852698825 886.7759504125854 356.78189415750734Q883.4958085834041 350.6205466675589 872.9683263613701 350.6205466675589L872.9683263613701 350.6205466675589Q862.9062696691524 350.6205466675589 853.4869434704901 354.29962466515406L853.4869434704901 354.29962466515406L850.4727590869184 355.40778068852603ZM936.1553828140422 356.5380998323655L936.1553828140422 421.3209009586932L924.1872977616244 421.3209009586932L924.1872977616244 341.5336672759085L936.0002409707699 341.5336672759085L936.0002409707699 347.1187736337034Q948.9213402032876 339.9379226022528 960.7342834124333 339.9379226022528L960.7342834124333 339.9379226022528Q976.6917301489902 339.9379226022528 982.1881840249155 348.55937646408705Q987.7068010213081 357.18083032592125 987.7068010213081 379.18880895008937L987.7068010213081 379.18880895008937L987.7068010213081 421.3209009586932L975.8938578121624 421.3209009586932L975.8938578121624 379.52125575710096Q975.8938578121624 362.92107852698825 972.6137159829814 356.78189415750734Q969.3557372742675 350.6205466675589 958.650950088494 350.6205466675589L958.650950088494 350.6205466675589Q953.5534323809827 350.6205466675589 947.879673541318 352.1498019798123Q942.2280778221207 353.65689417159825 939.1917303180815 355.0974970019819L939.1917303180815 355.0974970019819L936.1553828140422 356.5380998323655ZM1021.8380065411659 421.3209009586932L1009.8699214887483 421.3209009586932L1009.8699214887483 341.5336672759085L1021.8380065411659 341.5336672759085L1021.8380065411659 421.3209009586932ZM1021.8380065411659 323.49288721541217L1009.8699214887483 323.49288721541217L1009.8699214887483 309.61877380279464L1021.8380065411659 309.61877380279464L1021.8380065411659 323.49288721541217ZM1071.3060914244925 422.9166456323489L1071.3060914244925 422.9166456323489Q1055.1935028446635 422.9166456323489 1048.2564461383547 413.49731943368676Q1041.319389432046 404.07799323502473 1041.319389432046 381.5824259605729Q1041.319389432046 359.0868586861211 1049.6083964868685 349.51239064418695Q1057.9195666621586 339.9379226022528 1078.9745311062268 339.9379226022528L1078.9745311062268 339.9379226022528L1105.61460190809 341.5336672759085L1105.61460190809 456.7375674656626L1093.8238218194117 456.7375674656626L1093.8238218194117 417.6418229610981Q1082.6536091038217 422.9166456323489 1071.3060914244925 422.9166456323489ZM1079.1296729494989 350.3102629810148L1079.1296729494989 350.3102629810148Q1064.1252403930418 350.3102629810148 1058.7839283603887 357.80139769900956Q1053.4426163277358 365.3146955374718 1053.4426163277358 381.67107844244265Q1053.4426163277358 398.0274613474135 1057.8309141802888 405.1196598969944Q1062.219212032842 412.2340215670427 1072.591552411604 412.2340215670427L1072.591552411604 412.2340215670427Q1081.855736766994 412.2340215670427 1090.9426161586446 408.7100854127197L1090.9426161586446 408.7100854127197L1093.8238218194117 407.60192938934773L1093.8238218194117 351.26327716111473Q1083.916906970466 350.3102629810148 1079.1296729494989 350.3102629810148ZM1178.5534313664355 406.3164684022362L1178.5534313664355 341.5336672759085L1190.5215164188533 341.5336672759085L1190.5215164188533 421.3209009586932L1178.5534313664355 421.3209009586932L1178.5534313664355 415.73579460089826Q1166.585346314018 422.9166456323489 1154.9275449481443 422.9166456323489L1154.9275449481443 422.9166456323489Q1138.6598145250432 422.9166456323489 1133.31850249239 414.4503336137867Q1127.9550273392697 406.00618471569203 1127.9550273392697 383.1781706342286L1127.9550273392697 383.1781706342286L1127.9550273392697 341.5336672759085L1139.9231123916873 341.5336672759085L1139.9231123916873 383.0230287909565Q1139.9231123916873 400.4210783578971 1142.9594598957267 406.3164684022362Q1145.995807399766 412.2340215670427 1156.678431465072 412.2340215670427L1156.678431465072 412.2340215670427Q1161.9532541363228 412.2340215670427 1167.3832186508457 410.7047662547893Q1172.8131831653686 409.1976740630034 1175.6722257056683 407.7570712326198L1175.6722257056683 407.7570712326198L1178.5534313664355 406.3164684022362ZM1267.7599912478822 411.4361492302149L1267.7599912478822 411.4361492302149L1272.3699203051099 410.94856057993115L1272.7023671121215 420.36788677859323Q1254.5064452083532 422.9166456323489 1241.5853459758355 422.9166456323489L1241.5853459758355 422.9166456323489Q1224.342438252167 422.9166456323489 1217.1615872207165 412.94324142200077Q1209.9807361892658 402.9698372116527 1209.9807361892658 381.91487276758454L1209.9807361892658 381.91487276758454Q1209.9807361892658 339.9379226022528 1243.3362324927634 339.9379226022528L1243.3362324927634 339.9379226022528Q1259.4488210725922 339.9379226022528 1267.4275444408709 348.95831263250096Q1275.406267809149 357.97870266274913 1275.406267809149 377.2827805898895L1275.406267809149 377.2827805898895L1274.7635373155936 386.36965998154L1222.1039630849555 386.36965998154Q1222.1039630849555 399.6232060210692 1226.8911971059229 406.00618471569203Q1231.6784311268898 412.3891634103148 1243.580026817905 412.3891634103148Q1255.459459388453 412.3891634103148 1267.7599912478822 411.4361492302149ZM1221.9488212416836 376.79519193960584L1263.4381827567317 376.79519193960584Q1263.4381827567317 362.12320619016043 1258.7396012176341 356.05051118208183Q1254.0188565580695 349.9999792944706 1243.424884974633 349.9999792944706Q1232.8087502707292 349.9999792944706 1227.4674382380763 356.3829579890934Q1222.1039630849555 362.7659366837162 1221.9488212416836 376.79519193960584L1221.9488212416836 376.79519193960584ZM1319.1341044914088 350.6205466675589L1319.1341044914088 350.6205466675589Q1301.7360549244681 350.6205466675589 1301.7360549244681 362.7659366837162L1301.7360549244681 362.7659366837162Q1301.7360549244681 368.3510430415111 1305.7254166086075 370.65600757012487Q1309.7147782927468 372.9609720987387 1323.9213385123758 375.443241591092Q1338.1278987320052 377.92551108344526 1344.023288776344 382.38029829740077Q1349.9408419411507 386.85724863182367 1349.9408419411507 399.13561737078555Q1349.9408419411507 411.4361492302149 1342.0286079342745 417.1763974312818Q1334.1385370478656 422.9166456323489 1318.9789626481368 422.9166456323489L1318.9789626481368 422.9166456323489Q1309.0720477991908 422.9166456323489 1295.685523036857 420.6781704651374L1295.685523036857 420.6781704651374L1290.89828901589 419.88029812830956L1291.5188563889783 409.50795774954753Q1309.7147782927468 412.2340215670427 1318.9789626481368 412.2340215670427Q1328.2209838830593 412.2340215670427 1333.0968703858962 409.2641634244057Q1337.9727568887329 406.3164684022362 1337.9727568887329 399.3794116959274Q1337.9727568887329 392.4423549896186 1333.8060902408542 389.9600854972653Q1329.6615867134428 387.4999791253794 1315.6323314575534 385.261503958168Q1301.5809130811963 383.0230287909565 1295.685523036857 378.72338342027314Q1289.7679698720506 374.4015749291223 1289.7679698720506 362.7659366837162Q1289.7679698720506 351.10813531784265 1297.9904875654709 345.5230289600477Q1306.2130052588914 339.9379226022528 1318.4913739978529 339.9379226022528L1318.4913739978529 339.9379226022528Q1328.2209838830593 339.9379226022528 1342.915132752972 342.17639776946424L1342.915132752972 342.17639776946424L1347.3699199669277 342.97427010629207L1347.0596362803835 353.191468641782Q1329.3513030268987 350.6205466675589 1319.1341044914088 350.6205466675589Z " fill="#b88746" transform="matrix(0.6481765445543833,0,0,0.6481765445543834,0,52.566654175214026)"/></g></svg>